<svg width="181" height="50" viewBox="0 0 181 50" fill="none" xmlns="http://www.w3.org/2000/svg">
    <path fill-rule="evenodd" clip-rule="evenodd" d="M25.1649 3.48837C13.1692 3.48837 3.48003 13.1362 3.48003 25C3.48003 36.8638 13.1692 46.5116 25.1649 46.5116C37.1639 46.5116 46.8833 36.8606 46.8833 25C46.8833 13.1394 37.1639 3.48837 25.1649 3.48837ZM0 25C0 11.1785 11.2785 0 25.1649 0C39.0481 0 50.3633 11.1752 50.3633 25C50.3633 38.8248 39.0481 50 25.1649 50C11.2785 50 0 38.8215 0 25Z" fill="#2D9CDB"/>
    <path d="M23.1981 8.57568C23.8564 7.3742 25.5765 7.36847 26.2427 8.56554L37.4167 28.6419C38.0638 29.8045 37.2253 31.2358 35.8972 31.2358H13.7231C12.4001 31.2358 11.5611 29.8144 12.198 28.652L23.1981 8.57568Z" fill="#2D9CDB"/>
    <path d="M9.64658 34.3023C9.24527 34.3023 9.00821 34.7532 9.23502 35.085L9.78326 35.8497L10.3803 36.58L10.992 37.2759L11.6348 37.9538L12.3102 38.5974L13.0003 39.1885L13.7214 39.7616L14.4588 40.3003L15.2287 40.7883L15.9971 41.2566L16.798 41.6741L17.6137 42.0573L18.4442 42.388L19.2761 42.7008L20.1391 42.9431L20.9873 43.1691L21.8651 43.3443L22.7443 43.4655L23.6236 43.5523L24.5014 43.6047H25.3806L26.2584 43.5523L27.1376 43.4655L28.0169 43.3443L28.8946 43.1691L29.7428 42.9431L30.6058 42.7008L31.4378 42.388L32.2683 42.0573L33.084 41.6741L33.8849 41.2566L34.6533 40.7883L35.4232 40.3003L36.1606 39.7616L36.8817 39.1885L37.5718 38.5974L38.2471 37.9538L38.8899 37.2759L39.5017 36.58L40.0987 35.8497L40.6469 35.085C40.8733 34.7529 40.636 34.3023 40.2347 34.3023H9.64658Z" fill="#2D9CDB"/>
    <path d="M67.366 36.7809C66.0449 36.7809 64.8355 36.539 63.7377 36.0552C62.6399 35.5528 61.7096 34.8737 60.9467 34.0178C60.1838 33.1619 59.6349 32.2036 59.3 31.143L61.6723 30.1662C62.1747 31.5059 62.919 32.5385 63.9052 33.2642C64.9099 33.9713 66.0822 34.3248 67.4218 34.3248C68.2405 34.3248 68.9569 34.1945 69.5709 33.9341C70.1849 33.6736 70.6594 33.3107 70.9943 32.8456C71.3479 32.3618 71.5246 31.8036 71.5246 31.171C71.5246 30.2964 71.2734 29.608 70.7711 29.1056C70.2873 28.5846 69.5709 28.1939 68.622 27.9334L64.7983 26.7611C63.2911 26.296 62.1375 25.561 61.3374 24.5562C60.5373 23.5515 60.1373 22.3979 60.1373 21.0954C60.1373 19.9604 60.4071 18.9649 60.9467 18.109C61.5049 17.2345 62.2678 16.5553 63.2353 16.0716C64.2215 15.5692 65.3379 15.318 66.5845 15.318C67.8312 15.318 68.9569 15.5413 69.9617 15.9878C70.985 16.4344 71.8502 17.0391 72.5573 17.802C73.2644 18.5463 73.7853 19.4022 74.1203 20.3697L71.7758 21.3466C71.3293 20.1744 70.6594 19.2905 69.7663 18.6951C68.8732 18.0811 67.8219 17.7741 66.6124 17.7741C65.8682 17.7741 65.2076 17.9043 64.6308 18.1648C64.0726 18.4067 63.6354 18.7695 63.319 19.2533C63.0213 19.7185 62.8725 20.2767 62.8725 20.9279C62.8725 21.6908 63.1144 22.37 63.5981 22.9654C64.0819 23.5608 64.8169 24.0167 65.8031 24.333L69.2918 25.3656C70.9292 25.868 72.1666 26.5844 73.0039 27.5147C73.8412 28.4451 74.2598 29.5987 74.2598 30.9756C74.2598 32.1106 73.9621 33.1154 73.3667 33.9899C72.7899 34.8644 71.9805 35.5528 70.9385 36.0552C69.9151 36.539 68.7243 36.7809 67.366 36.7809Z" fill="#2D9CDB"/>
    <path d="M83.2883 36.7809C82.2091 36.7809 81.2323 36.5297 80.3577 36.0273C79.5018 35.5249 78.832 34.8272 78.3482 33.9341C77.8831 33.0223 77.6505 31.9803 77.6505 30.8081V21.4024H80.2461V30.529C80.2461 31.2733 80.395 31.9245 80.6927 32.4827C81.009 33.0409 81.4369 33.4782 81.9765 33.7945C82.5347 34.1108 83.1674 34.269 83.8744 34.269C84.5815 34.269 85.2048 34.1108 85.7444 33.7945C86.3026 33.4782 86.7306 33.0223 87.0283 32.4269C87.3446 31.8315 87.5027 31.1244 87.5027 30.3057V21.4024H90.1263V36.446H87.5865V33.5154L88.0051 33.7666C87.6516 34.7155 87.0469 35.4598 86.191 35.9994C85.3537 36.5204 84.3861 36.7809 83.2883 36.7809Z" fill="#2D9CDB"/>
    <path d="M94.1475 42.028V21.4024H96.6874V24.64L96.3524 23.998C96.9106 23.1049 97.6735 22.3979 98.6411 21.8769C99.6086 21.3373 100.716 21.0675 101.962 21.0675C103.376 21.0675 104.642 21.4117 105.758 22.1002C106.893 22.7886 107.786 23.7282 108.438 24.9191C109.089 26.0913 109.414 27.431 109.414 28.9381C109.414 30.4081 109.089 31.7385 108.438 32.9293C107.786 34.1201 106.893 35.0598 105.758 35.7482C104.642 36.4367 103.367 36.7809 101.934 36.7809C100.725 36.7809 99.6179 36.5111 98.6132 35.9715C97.627 35.4319 96.8641 34.669 96.3245 33.6829L96.7432 33.2363V42.028H94.1475ZM101.739 34.269C102.688 34.269 103.535 34.0364 104.279 33.5712C105.023 33.1061 105.6 32.4734 106.009 31.6733C106.437 30.8546 106.651 29.9429 106.651 28.9381C106.651 27.8962 106.437 26.9844 106.009 26.2029C105.6 25.4029 105.023 24.7702 104.279 24.3051C103.535 23.8213 102.688 23.5794 101.739 23.5794C100.79 23.5794 99.9342 23.812 99.1714 24.2771C98.4271 24.7423 97.8317 25.3842 97.3851 26.2029C96.9572 27.003 96.7432 27.9148 96.7432 28.9381C96.7432 29.9429 96.9572 30.8546 97.3851 31.6733C97.8317 32.4734 98.4271 33.1061 99.1714 33.5712C99.9342 34.0364 100.79 34.269 101.739 34.269Z" fill="#2D9CDB"/>
    <path d="M112.818 36.446V21.4024H115.358V24.1655L115.079 23.7748C115.432 22.9189 115.972 22.2862 116.697 21.8769C117.423 21.4489 118.307 21.2349 119.349 21.2349H120.27V23.691H118.958C117.898 23.691 117.042 24.026 116.39 24.6958C115.739 25.347 115.414 26.2774 115.414 27.4868V36.446H112.818Z" fill="#2D9CDB"/>
    <path d="M129.497 36.7809C128.046 36.7809 126.753 36.4367 125.618 35.7482C124.483 35.0598 123.59 34.1201 122.938 32.9293C122.287 31.7198 121.962 30.3709 121.962 28.8823C121.962 27.3752 122.278 26.0355 122.91 24.8633C123.562 23.691 124.436 22.77 125.534 22.1002C126.65 21.4117 127.897 21.0675 129.274 21.0675C130.39 21.0675 131.377 21.2722 132.232 21.6815C133.107 22.0722 133.842 22.6118 134.437 23.3003C135.051 23.9701 135.517 24.7423 135.833 25.6168C136.168 26.4727 136.335 27.3659 136.335 28.2962C136.335 28.5009 136.317 28.7335 136.279 28.994C136.261 29.2358 136.233 29.4684 136.196 29.6917H123.859V27.4589H134.689L133.46 28.4637C133.628 27.4961 133.535 26.6309 133.181 25.868C132.828 25.1051 132.307 24.5004 131.618 24.0539C130.93 23.6073 130.148 23.384 129.274 23.384C128.399 23.384 127.599 23.6073 126.874 24.0539C126.148 24.5004 125.581 25.1424 125.171 25.9797C124.78 26.7984 124.622 27.7752 124.697 28.9102C124.622 30.008 124.79 30.9756 125.199 31.8129C125.627 32.6316 126.222 33.2735 126.985 33.7387C127.767 34.1852 128.613 34.4085 129.525 34.4085C130.53 34.4085 131.377 34.1759 132.065 33.7108C132.753 33.2456 133.312 32.6502 133.74 31.9245L135.917 33.0409C135.619 33.7294 135.154 34.362 134.521 34.9388C133.907 35.497 133.172 35.9436 132.316 36.2785C131.479 36.6134 130.539 36.7809 129.497 36.7809Z" fill="#2D9CDB"/>
    <path d="M139.72 36.446V21.4024H142.259V24.4725L141.897 23.998C142.269 23.0491 142.864 22.3234 143.683 21.8211C144.501 21.3187 145.423 21.0675 146.446 21.0675C147.618 21.0675 148.669 21.3931 149.6 22.0443C150.549 22.6956 151.2 23.5515 151.553 24.6121L150.828 24.64C151.219 23.4678 151.879 22.5839 152.809 21.9885C153.74 21.3745 154.772 21.0675 155.907 21.0675C156.949 21.0675 157.889 21.3094 158.726 21.7931C159.582 22.2769 160.261 22.9468 160.764 23.8027C161.266 24.6586 161.517 25.6261 161.517 26.7053V36.446H158.894V27.5426C158.894 26.7053 158.745 25.9983 158.447 25.4215C158.15 24.8447 157.74 24.3981 157.219 24.0818C156.717 23.7469 156.121 23.5794 155.433 23.5794C154.763 23.5794 154.158 23.7469 153.619 24.0818C153.098 24.3981 152.679 24.854 152.363 25.4494C152.065 26.0262 151.916 26.7239 151.916 27.5426V36.446H149.293V27.5426C149.293 26.7053 149.144 25.9983 148.846 25.4215C148.548 24.8447 148.139 24.3981 147.618 24.0818C147.116 23.7469 146.52 23.5794 145.832 23.5794C145.162 23.5794 144.557 23.7469 144.018 24.0818C143.497 24.3981 143.078 24.854 142.762 25.4494C142.464 26.0262 142.315 26.7239 142.315 27.5426V36.446H139.72Z" fill="#2D9CDB"/>
    <path d="M172.349 36.7809C170.898 36.7809 169.586 36.446 168.414 35.7761C167.241 35.0877 166.311 34.148 165.623 32.9572C164.934 31.7664 164.59 30.4174 164.59 28.9102C164.59 27.4031 164.925 26.0634 165.595 24.8912C166.283 23.7189 167.213 22.7886 168.386 22.1002C169.558 21.4117 170.879 21.0675 172.349 21.0675C173.8 21.0675 175.112 21.4117 176.284 22.1002C177.456 22.77 178.377 23.691 179.047 24.8633C179.736 26.0355 180.08 27.3845 180.08 28.9102C180.08 30.436 179.726 31.7943 179.019 32.9851C178.312 34.1573 177.373 35.0877 176.201 35.7761C175.047 36.446 173.763 36.7809 172.349 36.7809ZM172.349 34.269C173.279 34.269 174.117 34.0364 174.861 33.5712C175.624 33.1061 176.219 32.4641 176.647 31.6454C177.094 30.8267 177.317 29.915 177.317 28.9102C177.317 27.8869 177.094 26.9844 176.647 26.2029C176.219 25.4029 175.624 24.7702 174.861 24.3051C174.117 23.8213 173.279 23.5794 172.349 23.5794C171.4 23.5794 170.544 23.8213 169.781 24.3051C169.037 24.7702 168.441 25.4029 167.995 26.2029C167.548 26.9844 167.325 27.8869 167.325 28.9102C167.325 29.915 167.548 30.8267 167.995 31.6454C168.441 32.4641 169.037 33.1061 169.781 33.5712C170.544 34.0364 171.4 34.269 172.349 34.269Z" fill="#2D9CDB"/>
</svg>
